#!OML:ASF F:\VICON\USERDATA\INSTALL\Justin_Nancy\Justin_Nancy.ASF
:FULLY-SPECIFIED
:DEGREES
84
root -10.2532 17.6962 -20.3764 -0.718467 -5.55569 -1.84883
lowerback 6.68486 0.173064 0.573161
upperback 0.869556 0.360536 2.95516
thorax -2.86731 0.185885 2.69776
lowerneck -15.2997 -3.27015 -9.91345
upperneck 22.6272 -3.57927 6.24767
head 10.0209 -1.8047 3.39683
rclavicle 2.20154e-014 1.98785e-014
rhumerus -32.1576 -16.9201 -76.671
rradius 27.916
rwrist 8.94293
rhand -14.3807 14.692
rfingers 7.12502
rthumb 11.762 -14.9577
lclavicle 2.20154e-014 1.98785e-014
lhumerus -32.7694 12.2419 82.7126
lradius 28.267
lwrist -12.079
lhand -10.8112 31.2246
lfingers 7.12502
lthumb 15.2023 60.6461
rfemur -7.72687 4.70369 28.1788
rtibia 20.0862
rfoot -6.62619 -5.11097
rtoes 10.5509
lfemur -22.5008 3.77471 -16.879
ltibia 65.3019
lfoot -0.0478268 -2.59039
ltoes -6.73105
85
root -10.2644 17.6828 -20.2459 -0.843452 -5.54692 -1.84904
lowerback 6.85553 0.169577 0.612053
upperback 0.885585 0.360462 2.89593
thorax -2.94552 0.185334 2.61458
lowerneck -15.1749 -3.17739 -9.87742
upperneck 22.6047 -3.47898 6.28332
head 9.97911 -1.75293 3.41729
rclavicle -1.96797e-014 7.95139e-015
rhumerus -32.0082 -15.9072 -77.1357
rradius 28.4971
rwrist 8.21653
rhand -14.0136 14.4853
rfingers 7.12502
rthumb 12.116 -15.1439
lclavicle -1.96797e-014 7.95139e-015
lhumerus -33.0989 12.341 82.7484
lradius 28.4738
lwrist -11.8692
lhand -10.8718 30.9002
lfingers 7.12502
lthumb 15.144 60.3261
rfemur -7.18365 4.6367 28.2835
rtibia 20.4134
rfoot -7.28539 -5.35152
rtoes 10.0073
lfemur -23.2115 3.7972 -16.8878
ltibia 64.771
lfoot -1.16827 -2.12821
ltoes -6.76848
86
root -10.2757 17.6679 -20.1158 -0.764755 -5.47601 -1.88925
lowerback 6.83909 0.121152 0.697723
upperback 0.816903 0.302894 2.85958
thorax -3.00428 0.156053 2.53413
lowerneck -15.1604 -3.10264 -9.88811
upperneck 22.8859 -3.36789 6.22527
head 10.066 -1.71316 3.41879
rclavicle -5.31749e-015 1.74931e-014
rhumerus -32.0056 -14.9887 -77.4928
rradius 29.1329
rwrist 7.75783
rhand -13.559 14.1519
rfingers 7.12502
rthumb 12.5543 -15.451
lclavicle -5.31749e-015 1.74931e-014
lhumerus -33.3873 11.9239 83.0027
lradius 28.2453
lwrist -9.674
lhand -12.7035 29.1027
lfingers 7.12502
lthumb 13.3789 58.6531
rfemur -6.88077 4.51083 28.3726
rtibia 20.757
rfoot -7.90418 -5.56088
rtoes 8.95302
lfemur -24.136 3.66145 -16.8766
ltibia 64.1211
lfoot -2.0466 -1.47955
ltoes -5.79644
87
root -10.2887 17.6501 -19.9857 -0.660441 -5.52468 -2.14413
lowerback 6.96138 0.16352 0.936931
upperback 0.668087 0.386026 2.88525
thorax -3.22856 0.195751 2.41894
lowerneck -14.9063 -3.19368 -9.87432
upperneck 22.8168 -3.4871 6.08027
head 10.0019 -1.78645 3.34792
rclavicle -6.70898e-015 1.98785e-014
rhumerus -31.9443 -14.7005 -77.6248
rradius 29.4744
rwrist 7.77255
rhand -13.2547 13.9946
rfingers 7.12502
rthumb 12.8477 -15.59
lclavicle -6.70898e-015 1.98785e-014
lhumerus -33.7206 11.6758 83.1615
lradius 27.8315
lwrist -7.95871
lhand -14.8219 27.0959
lfingers 7.12502
lthumb 11.3365 56.7695
rfemur -6.61415 4.49588 28.7105
rtibia 21.0802
rfoot -8.50106 -5.81856
rtoes 8.13078
lfemur -25.0298 3.70053 -16.621
ltibia 63.329
lfoot -2.80184 -0.840146
ltoes -5.34784
88
root -10.3025 17.6356 -19.8579 -0.538621 -5.76963 -2.43755
lowerback 7.07419 0.257452 1.18586
upperback 0.618664 0.537695 2.95713
thorax -3.34681 0.268441 2.3388
lowerneck -14.8799 -3.28499 -10.0102
upperneck 22.6667 -3.56379 6.02523
head 9.95326 -1.8381 3.33803
rclavicle -8.24956e-015 -2.94201e-014
rhumerus -31.5889 -14.3421 -77.8369
rradius 29.7725
rwrist 7.75107
rhand -13.3177 13.7283
rfingers 7.12502
rthumb 12.7869 -15.8601
lclavicle -8.24956e-015 -2.94201e-014
lhumerus -33.8603 11.7453 83.245
lradius 27.6005
lwrist -7.60916
lhand -15.2237 26.3571
lfingers 7.12502
lthumb 10.949 56.0516
rfemur -6.40115 4.71574 29.1009
rtibia 21.3385
rfoot -9.03308 -5.93024
rtoes 9.49726
lfemur -25.8146 3.9356 -16.3
ltibia 62.3613
lfoot -3.45031 -0.296766
ltoes -4.84453
89
root -10.3075 17.6208 -19.7223 -0.530682 -5.90977 -2.55813
lowerback 6.96894 0.307476 1.51596
upperback 0.759408 0.617885 2.84854
thorax -3.14002 0.302857 2.03215
lowerneck -14.978 -3.23197 -10.0056
upperneck 22.5799 -3.51278 6.17073
head 9.9378 -1.79491 3.39426
rclavicle 4.87022e-015 1.35174e-014
rhumerus -31.0652 -13.8249 -78.3066
rradius 30.085
rwrist 7.32432
rhand -13.4227 13.546
rfingers 7.12502
rthumb 12.6858 -16.0487
lclavicle 4.87022e-015 1.35174e-014
lhumerus -33.937 11.6466 83.2641
lradius 27.8511
lwrist -7.5707
lhand -14.5336 26.6495
lfingers 7.12502
lthumb 11.6145 56.3076
rfemur -6.06756 4.6595 29.2515
rtibia 21.6369
rfoot -9.66767 -5.93721
rtoes 9.7587
lfemur -26.4034 4.0278 -16.2295
ltibia 61.2531
lfoot -3.88587 0.303437
ltoes -3.01825
